PathFileType	3	(X/Y/Z)	F:\ViconData\AntennenMessung\Messung1\Session1\ID21.trc
DataRate	CameraRate	NumFrames	NumMarkers	Units	OrigDataRate	OrigDataStartFrame	OrigNumFrames
120.0	120.0	6	70	mm	120.0	564	1126	
Frame#	Time	Ashort			Along			Atop			A4			Bshort			Blong			Btop			B4			Cshort			Clong			Ctop			C4			Dshort			Dlong			Dtop			D4			Eshort			Elong			Etop			E4			Fshort			Flong			Ftop			F4			Gshort			Glong			Gtop			G4			Hshort			Hlong			Htop			H4			I1			I2			I3			I4			I5			WandAshort			WandAlong			WandAtop			WandA4			WandA15			WandBshort			WandB4			WandB5			WandBtop			WandBlong			WandCshort			WandClong			WandCtop			WandC4			WandC5			Acenter			Aantenna			Bcenter			Bantenna			Ccenter			Cantenna			Dcenter			Dantenna			Ecenter			Eantenna			Fcenter			Fantenna			Gcenter			Gantenna			Hcenter			Hantenna			Icenter			Iantenna			
		X1	Y1	Z1	X2	Y2	Z2	X3	Y3	Z3	X4	Y4	Z4	X5	Y5	Z5	X6	Y6	Z6	X7	Y7	Z7	X8	Y8	Z8	X9	Y9	Z9	X10	Y10	Z10	X11	Y11	Z11	X12	Y12	Z12	X13	Y13	Z13	X14	Y14	Z14	X15	Y15	Z15	X16	Y16	Z16	X17	Y17	Z17	X18	Y18	Z18	X19	Y19	Z19	X20	Y20	Z20	X21	Y21	Z21	X22	Y22	Z22	X23	Y23	Z23	X24	Y24	Z24	X25	Y25	Z25	X26	Y26	Z26	X27	Y27	Z27	X28	Y28	Z28	X29	Y29	Z29	X30	Y30	Z30	X31	Y31	Z31	X32	Y32	Z32	X33	Y33	Z33	X34	Y34	Z34	X35	Y35	Z35	X36	Y36	Z36	X37	Y37	Z37	X38	Y38	Z38	X39	Y39	Z39	X40	Y40	Z40	X41	Y41	Z41	X42	Y42	Z42	X43	Y43	Z43	X44	Y44	Z44	X45	Y45	Z45	X46	Y46	Z46	X47	Y47	Z47	X48	Y48	Z48	X49	Y49	Z49	X50	Y50	Z50	X51	Y51	Z51	X52	Y52	Z52	X53	Y53	Z53	X54	Y54	Z54	X55	Y55	Z55	X56	Y56	Z56	X57	Y57	Z57	X58	Y58	Z58	X59	Y59	Z59	X60	Y60	Z60	X61	Y61	Z61	X62	Y62	Z62	X63	Y63	Z63	X64	Y64	Z64	X65	Y65	Z65	X66	Y66	Z66	X67	Y67	Z67	X68	Y68	Z68	X69	Y69	Z69	X70	Y70	Z70	
564	4.6916667	-1038.2456	214.52663	-1644.1133	-1109.3654	204.27007	-1599.3776	-1063.8975	172.63461	-1625.421	-1054.1948	262.40918	-1635.0258	-1352.9139	234.9592	1003.634	-1281.3264	227.12703	1052.4446	-1322.6605	194.07339	1020.8607	-1284.7386	287.91122	1052.8148	813.91046	187.7863	1209.5021	892.12268	178.59027	1179.2386	844.5545	145.40704	1198.2657	861.01025	292.57751	1168.5919	1115.73	209.55792	-1401.5292	1056.187	194.27641	-1460.502	1094.6996	161.85316	-1423.9318	1069.9147	238.74706	-1425.7457	-1204.5629	1685.9644	-1563.1576	-1129.1305	1688.3463	-1606.0229	-1173.2494	1724.3907	-1581.8025	-1134.0529	1581.0228	-1603.8936	-1239.703	1699.2377	1119.5747	-1309.097	1698.3279	1071.8149	-1268.9329	1737.3956	1094.2371	-1244.9224	1593.7539	1106.0983	988.91266	1664.2738	1162.2214	957.51868	1700.3683	1183.8979	923.02124	1661.9521	1215.1683	939.77216	1659.4365	1159.8586	998.94287	1668.4977	-1579.5499	1058.8074	1670.1489	-1518.7258	1024.9342	1708.0597	-1551.198	1059.1948	1672.1974	-1585.6293	-209.58047	1636.9476	-265.37585	-216.58424	1638.4478	-181.30682	-213.34137	1674.4285	-228.3764	-244.52116	1635.2599	-231.21274	-164.36284	1640.3843	-225.47992																																														-1068.9214	210.10268	-1624.8175	-1074.1036	248.75183	-1624.1949	-1321.447	231.51649	1025.089	-1320.1918	270.25009	1029.4631	848.2663	183.7468	1196.2085	852.0191	222.51004	1194.1284	1088.6333	202.60364	-1428.3663	1082.9238	240.95702	-1432.54	-1171.9912	1686.9928	-1581.6667	-1170.6801	1648.015	-1581.5251	-1271.0277	1698.8269	1098.0156	-1273.1328	1660.0693	1101.8129	953.25916	1705.2654	1186.839	972.93317	1733.4468	1168.4069	1026.4327	1669.2559	-1551.6193	1027.9376	1630.2871	-1552.0426	-212.72191	1637.6204	-227.66798	-212.06578	1598.6331	-226.91763
565	4.7	-1038.2382	214.59746	-1644.1761	-1109.3766	204.23355	-1599.3568	-1063.806	173.1067	-1625.6556	-1054.21	262.435	-1635.0149	-1352.8646	234.88762	1003.6071	-1281.293	227.11591	1052.4132	-1322.6497	194.04997	1020.8934	-1284.6868	287.95853	1052.7717	813.91919	187.79199	1209.5022	892.28406	178.49194	1179.1785	844.31189	145.57188	1198.2565	860.93176	292.54901	1168.6729	1115.7407	209.58586	-1401.5406	1056.1758	194.1834	-1460.4102	1094.6982	161.89143	-1423.9519	1069.8589	238.70116	-1425.7141	-1204.5615	1685.9548	-1563.1593	-1129.1174	1688.3542	-1606.0286	-1173.2188	1724.4542	-1581.8776	-1134.0504	1581.0394	-1603.9138	-1239.701	1699.248	1119.5815	-1308.2517	1699.3002	1068.2943	-1270.4493	1736.3971	1096.9569	-1244.8872	1593.7834	1106.1245	988.90076	1664.2705	1162.2255	957.51666	1700.3457	1183.8795	922.99939	1662.0242	1215.0675	939.77289	1659.4357	1159.8766	998.9444	1668.5095	-1579.5527	1058.6802	1669.9789	-1518.7341	1024.9408	1708.0721	-1551.198	1059.2101	1672.1626	-1585.5222	-209.57433	1636.9623	-265.37131	-216.56711	1638.4299	-181.31839	-213.33923	1674.447	-228.39565	-244.54552	1635.2664	-231.20045	-164.28017	1640.4393	-225.47008																																														-1068.7572	210.15125	-1624.948	-1073.9229	248.80058	-1624.21	-1321.4202	231.47318	1025.0496	-1320.1473	270.21423	1029.3519	848.07806	183.73813	1196.2842	851.90289	222.4984	1194.2812	1088.5712	202.56026	-1428.3929	1082.7947	240.90218	-1432.5798	-1171.9279	1686.9927	-1581.7026	-1170.5847	1648.0161	-1581.5204	-1270.285	1699.2712	1096.6996	-1270.1124	1660.2726	1096.4293	953.23175	1705.271	1186.8358	972.93402	1733.4547	1168.4374	1026.354	1669.1836	-1551.6462	1027.77	1630.2119	-1552.0957	-212.70837	1637.62	-227.7001	-212.0405	1598.6326	-226.96379
566	4.7083333	-1038.2521	214.60721	-1644.2012	-1109.3829	204.18355	-1599.3447	-1063.9718	172.6068	-1625.4258	-1054.1796	262.35342	-1634.9711	-1352.8887	235.01027	1003.5398	-1281.3339	227.16716	1052.3896	-1322.6915	194.04718	1020.8604	-1284.7605	287.91116	1052.8446	813.98962	187.76076	1209.5074	892.60846	179.30022	1178.7513	844.63892	145.30191	1198.3392	860.88794	292.49112	1168.6694	1115.7527	209.58406	-1401.546	1056.0959	194.08965	-1460.4417	1094.6884	161.84343	-1423.9818	1069.8698	238.65895	-1425.7577	-1204.5614	1685.9749	-1563.1688	-1129.1307	1688.3519	-1606.0392	-1173.2124	1724.4557	-1581.8738	-1134.0393	1581.0297	-1603.9353	-1239.6891	1699.2412	1119.5867	-1309.0637	1698.3047	1071.8043	-1270.4491	1736.3986	1096.9617	-1244.6801	1593.8046	1106.5105	988.89246	1664.2642	1162.2277	957.59955	1700.2927	1183.9114	922.85333	1662.0083	1215.0112	939.79321	1659.3878	1159.8729	998.92664	1668.516	-1579.5609	1058.8184	1670.1489	-1518.7274	1024.9275	1708.0713	-1551.2031	1059.2079	1672.1713	-1585.5242	-209.58272	1636.9559	-265.3735	-216.57814	1638.4407	-181.31116	-213.34299	1674.4321	-228.38062	-244.55215	1635.2886	-231.21729	-164.29671	1640.4161	-225.40807																																														-1069.0552	210.09323	-1624.776	-1074.2953	248.7338	-1624.1062	-1321.421	231.5611	1025.0223	-1320.1089	270.3013	1029.3204	847.98138	184.10272	1196.2097	851.32367	222.90086	1194.0803	1088.5193	202.51083	-1428.4319	1082.7042	240.84601	-1432.6268	-1171.9387	1687.0028	-1581.7095	-1170.6134	1648.0256	-1581.5386	-1270.7771	1698.8214	1098.1744	-1271.1174	1659.8433	1099.4326	953.24475	1705.3064	1186.9287	973.03491	1733.5012	1168.6422	1026.4221	1669.2656	-1551.6329	1027.9231	1630.297	-1552.0646	-212.71956	1637.6217	-227.67859	-212.05928	1598.6344	-226.93501
567	4.7166667	-1038.2305	214.52588	-1644.1759	-1109.3528	204.23222	-1599.3486	-1063.9827	172.62469	-1625.4124	-1054.2195	262.39093	-1635.0079	-1353.0043	234.78854	1003.575	-1281.3447	227.14812	1052.4022	-1322.6588	194.03909	1020.8696	-1284.7279	287.96036	1052.7533	813.98834	187.69922	1209.48	892.81006	179.21107	1178.6605	844.36029	145.55318	1198.2922	860.97504	292.51401	1168.6733	1115.7435	209.5918	-1401.5516	1056.043	194.07787	-1460.4098	1094.7346	161.88962	-1423.9631	1069.8367	238.65991	-1425.7593	-1204.5713	1685.9696	-1563.1686	-1129.1301	1688.3347	-1606.0272	-1173.2238	1724.4486	-1581.8787	-1134.0443	1581.0164	-1603.9204	-1239.6642	1699.2207	1119.5836	-1308.3212	1699.0419	1068.7406	-1270.4543	1736.4143	1096.9722	-1244.8602	1593.808	1106.0789	988.88123	1664.2474	1162.2286	957.61096	1700.2568	1183.8759	922.89331	1661.9386	1215.0934	939.78607	1659.4624	1159.8275	998.93811	1668.5004	-1579.5491	1058.6964	1669.9867	-1518.7328	1024.9465	1708.0801	-1551.1938	1059.2186	1672.1582	-1585.5214	-209.58337	1636.9449	-265.36404	-216.57695	1638.4485	-181.30499	-213.33826	1674.4181	-228.37701	-244.52925	1635.2732	-231.19829	-164.2962	1640.4531	-225.41898																																														-1069.0038	210.07198	-1624.7798	-1074.186	248.72061	-1624.1272	-1321.5099	231.43056	1025.0345	-1320.3197	270.17279	1029.35	847.7243	184.06625	1196.2889	851.11353	222.86626	1194.2709	1088.5309	202.52026	-1428.3801	1082.678	240.85274	-1432.5472	-1171.9487	1686.9922	-1581.7015	-1170.6222	1648.0153	-1581.5173	-1270.3008	1699.1407	1096.8959	-1270.1403	1660.1412	1096.8164	953.26099	1705.2659	1186.8871	973.01355	1733.448	1168.5404	1026.3647	1669.1825	-1551.6367	1027.7856	1630.2109	-1552.0804	-212.71967	1637.6191	-227.66731	-212.0643	1598.6318	-226.91545
568	4.725	-1038.248	214.53575	-1644.1366	-1109.3802	204.31059	-1599.3787	-1063.8245	173.09241	-1625.6458	-1054.2726	262.56128	-1635.2073	-1352.9303	234.96367	1003.614	-1281.4088	227.20564	1052.4327	-1322.7053	194.04144	1020.8997	-1284.7362	287.96884	1052.7943	813.99884	187.7608	1209.3608	892.21472	178.66583	1179.2062	844.31958	145.52557	1198.356	860.94867	292.53745	1168.6525	1115.743	209.54591	-1401.5002	1056.1348	194.13251	-1460.3871	1094.699	161.87146	-1423.9371	1069.8573	238.67389	-1425.7278	-1204.5682	1685.9707	-1563.1674	-1129.1248	1688.3577	-1606.0601	-1173.2188	1724.4507	-1581.8649	-1134.0543	1581.0341	-1603.9125	-1239.6919	1699.2911	1119.6034	-1308.209	1699.6362	1068.0763	-1270.5741	1736.6052	1097.0433	-1244.8292	1593.88	1106.0128	988.8775	1664.2657	1162.2069	957.53168	1700.3007	1183.9219	922.953	1661.9738	1215.0916	939.78888	1659.4487	1159.8856	998.94647	1668.5043	-1579.52	1058.6965	1669.9927	-1518.7126	1024.9509	1708.0854	-1551.1859	1059.2216	1672.1785	-1585.5093	-209.56561	1636.9523	-265.37155	-216.57201	1638.4318	-181.32112	-213.34172	1674.4288	-228.36971	-244.5488	1635.2896	-231.19942	-164.27737	1640.4369	-225.44548																																														-1068.7218	210.15518	-1624.9618	-1073.8298	248.81264	-1624.2485	-1321.4872	231.55299	1025.0762	-1320.2291	270.2933	1029.3896	847.96545	183.81113	1196.2656	851.65735	222.57826	1194.149	1088.5564	202.51604	-1428.3577	1082.762	240.85706	-1432.528	-1171.9478	1687.0028	-1581.7134	-1170.6249	1648.0255	-1581.5558	-1270.3743	1699.4456	1096.5291	-1270.1648	1660.4498	1095.9894	953.2085	1705.2705	1186.9166	972.91895	1733.4768	1168.5616	1026.3615	1669.187	-1551.6198	1027.7745	1630.2151	-1552.0544	-212.70847	1637.616	-227.66885	-212.03781	1598.6287	-226.92662
569	4.7333333	-1038.2518	214.5773	-1644.1831	-1109.376	204.20621	-1599.3203	-1063.9556	172.6156	-1625.405	-1054.2548	262.5394	-1635.2111	-1352.8553	235.04057	1003.5439	-1281.3403	227.14641	1052.4111	-1322.6237	194.06012	1020.862	-1284.7096	287.89548	1052.7917	813.90204	187.70256	1209.5343	892.21259	178.75488	1179.0605	844.29022	145.69748	1198.2329	860.93628	292.59589	1168.584	1115.7343	209.57199	-1401.5049	1056.2312	194.26237	-1460.4364	1094.7216	161.93918	-1423.9551	1069.8506	238.68521	-1425.7316	-1204.5688	1685.9618	-1563.1714	-1129.1305	1688.3599	-1606.0834	-1173.2285	1724.45	-1581.8773	-1134.0612	1581.0239	-1603.9196	-1239.6636	1699.2266	1119.5781	-1309.3116	1698.7133	1071.9331	-1268.8677	1737.3683	1094.1671	-1244.9286	1593.686	1106.0825	988.8678	1664.2277	1162.2269	957.39038	1700.4259	1183.8563	922.9353	1661.9712	1215.1199	939.7381	1659.4553	1159.8497	998.94708	1668.4922	-1579.5314	1058.8188	1670.1633	-1518.7261	1024.9438	1708.0687	-1551.1926	1059.2058	1672.1718	-1585.5281	-209.57098	1636.9603	-265.36496	-216.5683	1638.4379	-181.31178	-213.34338	1674.4297	-228.37263	-244.57828	1635.2988	-231.1938	-164.32146	1640.4114	-225.45081																																														-1069.0221	210.09047	-1624.7742	-1074.2466	248.73347	-1624.1237	-1321.3572	231.56364	1025.067	-1320.0492	270.29895	1029.4103	847.896	183.81845	1196.3059	851.56384	222.59607	1194.3456	1088.6211	202.59601	-1428.3574	1082.8669	240.94501	-1432.51	-1171.9514	1686.9987	-1581.7252	-1170.6224	1648.0216	-1581.5669	-1271.2069	1698.994	1097.9999	-1273.568	1660.2584	1101.8689	953.198	1705.2468	1186.7371	972.8847	1733.3987	1168.2733	1026.4452	1669.2595	-1551.6044	1027.9528	1630.291	-1552.0178	-212.7088	1637.6228	-227.67279	-212.03664	1598.6356	-226.93149
